<?xml version="1.0" encoding="UTF-8"?>
<!DOCTYPE svg PUBLIC "-//W3C//DTD SVG 1.1//EN" "http://www.w3.org/Graphics/SVG/1.1/DTD/svg11.dtd">
<svg xmlns="http://www.w3.org/2000/svg" version="1.1" width="804px" height="104px" style="shape-rendering:geometricPrecision; text-rendering:geometricPrecision; image-rendering:optimizeQuality; fill-rule:evenodd; clip-rule:evenodd" xmlns:xlink="http://www.w3.org/1999/xlink">
<g><path style="opacity:0.188" fill="#fe0000" d="M 6.5,-0.5 C 7.16667,-0.5 7.83333,-0.5 8.5,-0.5C 7.83333,6.16667 7.16667,6.16667 6.5,-0.5 Z"/></g>
<g><path style="opacity:0.339" fill="#ff0000" d="M 800.5,-0.5 C 800.833,-0.5 801.167,-0.5 801.5,-0.5C 801.167,6.16667 800.833,6.16667 800.5,-0.5 Z"/></g>
<g><path style="opacity:0.937" fill="#d32d21" d="M 59.5,9.5 C 55.9581,9.18723 52.6248,9.52056 49.5,10.5C 37.2234,10.3052 24.7234,10.6386 12,11.5C 11.5357,10.9056 11.369,10.2389 11.5,9.5C 13.0395,7.16175 13.7062,4.49508 13.5,1.5C 29.0679,3.5382 44.4012,6.20487 59.5,9.5 Z"/></g>
<g><path style="opacity:0.376" fill="#fe0000" d="M 6.5,6.5 C 6.89657,5.47498 7.56323,5.30831 8.5,6C 7.90558,6.46434 7.23891,6.63101 6.5,6.5 Z"/></g>
<g><path style="opacity:0.753" fill="#fe0000" d="M 800.5,5.5 C 801.833,6.16667 801.833,6.16667 800.5,5.5 Z"/></g>
<g><path style="opacity:0.193" fill="#fe0000" d="M 8.5,9.5 C 7.53862,11.2646 7.20528,13.2646 7.5,15.5C 6.56552,14.4324 6.23219,13.099 6.5,11.5C 5.02218,11.762 3.68884,11.4287 2.5,10.5C 4.33246,9.75152 5.99913,8.75152 7.5,7.5C 8.29755,7.95689 8.63088,8.62356 8.5,9.5 Z"/></g>
<g><path style="opacity:0.319" fill="#ff0000" d="M 803.5,9.5 C 803.5,9.83333 803.5,10.1667 803.5,10.5C 801.933,11.6808 801.099,13.3474 801,15.5C 799.562,12.7222 799.562,10.0555 801,7.5C 801.417,8.75598 802.25,9.42265 803.5,9.5 Z"/></g>
<g><path style="opacity:0.376" fill="#fe0000" d="M 0.5,9.5 C 1.52502,9.89657 1.69169,10.5632 1,11.5C 0.535656,10.9056 0.368989,10.2389 0.5,9.5 Z"/></g>
<g><path style="opacity:0.166" fill="#fe0000" d="M 98.5,9.5 C 109.167,10.1667 109.167,10.8333 98.5,11.5C 98.5,10.8333 98.5,10.1667 98.5,9.5 Z"/></g>
<g><path style="opacity:0.314" fill="#fe0000" d="M 786.5,9.5 C 787.525,9.89657 787.692,10.5632 787,11.5C 786.536,10.9056 786.369,10.2389 786.5,9.5 Z"/></g>
<g><path style="opacity:0.376" fill="#fe0000" d="M 788.5,9.5 C 789.525,9.89657 789.692,10.5632 789,11.5C 788.536,10.9056 788.369,10.2389 788.5,9.5 Z"/></g>
<g><path style="opacity:0.176" fill="#fe0000" d="M 790.5,9.5 C 793.247,9.18665 795.914,9.51998 798.5,10.5C 797.167,10.8333 795.833,11.1667 794.5,11.5C 792.667,11.4146 791.334,10.7479 790.5,9.5 Z"/></g>
<g><path style="opacity:1" fill="#282021" d="M 8.5,9.5 C 9.5,9.5 10.5,9.5 11.5,9.5C 11.369,10.2389 11.5357,10.9056 12,11.5C 24.7234,10.6386 37.2234,10.3052 49.5,10.5C 57.3873,10.5958 65.2206,10.9291 73,11.5C 73.4643,10.9056 73.631,10.2389 73.5,9.5C 73.8333,9.5 74.1667,9.5 74.5,9.5C 74.369,10.2389 74.5357,10.9056 75,11.5C 78.2708,10.4748 81.2708,10.4748 84,11.5C 84.4643,10.9056 84.631,10.2389 84.5,9.5C 85.5,9.5 86.5,9.5 87.5,9.5C 87.369,10.2389 87.5357,10.9056 88,11.5C 90.5899,10.6217 92.9232,10.6217 95,11.5C 95.4643,10.9056 95.631,10.2389 95.5,9.5C 95.8333,9.5 96.1667,9.5 96.5,9.5C 97.4069,15.1064 97.7402,20.773 97.5,26.5C 86.6536,26.1722 75.9869,26.5056 65.5,27.5C 64.5655,28.5676 64.2322,29.901 64.5,31.5C 63.5489,32.9187 63.2155,34.5853 63.5,36.5C 66.8333,36.5 70.1667,36.5 73.5,36.5C 73.1711,50.0105 73.5044,63.3438 74.5,76.5C 77.8333,76.5 81.1667,76.5 84.5,76.5C 84.5,63.1667 84.5,49.8333 84.5,36.5C 88.8333,36.5 93.1667,36.5 97.5,36.5C 97.82,55.5762 97.4867,74.5762 96.5,93.5C 95.5,94.8333 94.5,94.8333 93.5,93.5C 79.1605,93.4876 64.8271,93.4876 50.5,93.5C 44.3602,93.8875 38.3602,93.8875 32.5,93.5C 31.1667,92.1667 29.8333,92.1667 28.5,93.5C 26.8333,93.5 25.1667,93.5 23.5,93.5C 22.5,92.1667 21.5,92.1667 20.5,93.5C 16.3585,94.4462 12.3585,94.4462 8.5,93.5C 7.89022,92.609 7.55688,91.609 7.5,90.5C 6.16667,89.5 6.16667,88.5 7.5,87.5C 7.25293,84.0613 7.58627,80.728 8.5,77.5C 15.3543,77.824 22.021,77.4907 28.5,76.5C 40.793,76.0424 46.6264,69.7091 46,57.5C 44.5422,55.04 42.7089,52.8734 40.5,51C 33.4403,48.8191 26.4403,46.4857 19.5,44C 17.9865,41.0844 18.3199,38.4177 20.5,36C 28.4931,35.5003 36.4931,35.3336 44.5,35.5C 44.5751,32.7938 44.9084,30.1272 45.5,27.5C 36.4938,27.3336 27.4938,27.5002 18.5,28C 13.2262,30.4373 9.55952,34.2706 7.5,39.5C 6.65792,31.4649 6.65792,23.4649 7.5,15.5C 7.20528,13.2646 7.53862,11.2646 8.5,9.5 Z"/></g>
<g><path style="opacity:0.545" fill="#9b4946" d="M 74.5,9.5 C 77.8333,9.5 81.1667,9.5 84.5,9.5C 84.631,10.2389 84.4643,10.9056 84,11.5C 81.2708,10.4748 78.2708,10.4748 75,11.5C 74.5357,10.9056 74.369,10.2389 74.5,9.5 Z"/></g>
<g><path style="opacity:1" fill="#a73f3a" d="M 49.5,10.5 C 52.6248,9.52056 55.9581,9.18723 59.5,9.5C 64.1667,9.5 68.8333,9.5 73.5,9.5C 73.631,10.2389 73.4643,10.9056 73,11.5C 65.2206,10.9291 57.3873,10.5958 49.5,10.5 Z"/></g>
<g><path style="opacity:1" fill="#913e3b" d="M 87.5,9.5 C 90.1667,9.5 92.8333,9.5 95.5,9.5C 95.631,10.2389 95.4643,10.9056 95,11.5C 92.9232,10.6217 90.5899,10.6217 88,11.5C 87.5357,10.9056 87.369,10.2389 87.5,9.5 Z"/></g>
<g><path style="opacity:0.928" fill="#dc271a" d="M 98.5,15.5 C 101.009,16.1131 103.509,16.7798 106,17.5C 105.816,22.7571 104.982,27.9238 103.5,33C 111.474,34.1512 111.474,34.9845 103.5,35.5C 102.065,44.3358 100.399,53.0024 98.5,61.5C 98.5,52.8333 98.5,44.1667 98.5,35.5C 98.5,32.8333 98.5,30.1667 98.5,27.5C 98.5,23.5 98.5,19.5 98.5,15.5 Z"/></g>
<g><path style="opacity:0.627" fill="#fe0001" d="M 800.5,16.5 C 801.833,17.1667 801.833,17.1667 800.5,16.5 Z"/></g>
<g><path style="opacity:0.69" fill="#fe0000" d="M 800.5,18.5 C 801.833,19.1667 801.833,19.1667 800.5,18.5 Z"/></g>
<g><path style="opacity:0.361" fill="#ff0000" d="M 800.5,20.5 C 801.634,22.9664 801.801,25.633 801,28.5C 800.503,25.854 800.336,23.1873 800.5,20.5 Z"/></g>
<g><path style="opacity:1" fill="#ce281c" d="M 51.5,25.5 C 59.1624,25.0268 61.4957,28.1935 58.5,35C 51.7352,37.2434 48.9019,34.7434 50,27.5C 50.7172,26.9558 51.2172,26.2891 51.5,25.5 Z"/></g>
<g><path style="opacity:1" fill="#5b5353" d="M 96.5,9.5 C 97.1667,9.5 97.8333,9.5 98.5,9.5C 98.5,10.1667 98.5,10.8333 98.5,11.5C 98.5,12.8333 98.5,14.1667 98.5,15.5C 98.5,19.5 98.5,23.5 98.5,27.5C 87.5,27.5 76.5,27.5 65.5,27.5C 75.9869,26.5056 86.6536,26.1722 97.5,26.5C 97.7402,20.773 97.4069,15.1064 96.5,9.5 Z"/></g>
<g><path style="opacity:1" fill="#f6f5f5" d="M 28.5,76.5 C 21.4122,76.7955 14.4122,76.4621 7.5,75.5C 7.5,73.1667 7.5,70.8333 7.5,68.5C 15.84,68.6664 24.1733,68.4997 32.5,68C 37.8333,64.6667 37.8333,61.3333 32.5,58C 26.0429,56.3758 19.7095,54.3758 13.5,52C 9.72966,48.9558 7.72966,45.1225 7.5,40.5C 7.5,40.1667 7.5,39.8333 7.5,39.5C 9.55952,34.2706 13.2262,30.4373 18.5,28C 27.4938,27.5002 36.4938,27.3336 45.5,27.5C 44.9084,30.1272 44.5751,32.7938 44.5,35.5C 36.4931,35.3336 28.4931,35.5003 20.5,36C 18.3199,38.4177 17.9865,41.0844 19.5,44C 26.4403,46.4857 33.4403,48.8191 40.5,51C 42.7089,52.8734 44.5422,55.04 46,57.5C 46.6264,69.7091 40.793,76.0424 28.5,76.5 Z"/></g>
<g><path style="opacity:1" fill="#fefdfd" d="M 65.5,27.5 C 76.5,27.5 87.5,27.5 98.5,27.5C 98.5,30.1667 98.5,32.8333 98.5,35.5C 93.6367,35.1805 88.97,35.5139 84.5,36.5C 84.5,49.8333 84.5,63.1667 84.5,76.5C 81.1667,76.5 77.8333,76.5 74.5,76.5C 74.5,62.8333 74.5,49.1667 74.5,35.5C 71.1667,35.5 67.8333,35.5 64.5,35.5C 64.5,34.1667 64.5,32.8333 64.5,31.5C 64.2322,29.901 64.5655,28.5676 65.5,27.5 Z"/></g>
<g><path style="opacity:0.753" fill="#fe0000" d="M 800.5,29.5 C 801.833,30.1667 801.833,30.1667 800.5,29.5 Z"/></g>
<g><path style="opacity:0.256" fill="#ec0001" d="M 800.5,39.5 C 800.5,37.8333 800.5,36.1667 800.5,34.5C 798.05,34.298 795.717,34.6314 793.5,35.5C 795.838,34.0939 798.338,32.7606 801,31.5C 801.801,34.367 801.634,37.0336 800.5,39.5 Z"/></g>
<g><path style="opacity:0.376" fill="#fe0000" d="M 110.5,33.5 C 111.525,33.8966 111.692,34.5632 111,35.5C 110.536,34.9056 110.369,34.2389 110.5,33.5 Z"/></g>
<g><path style="opacity:0.176" fill="#fe0000" d="M 133.5,34.5 C 133.5,34.8333 133.5,35.1667 133.5,35.5C 131.5,35.5 129.5,35.5 127.5,35.5C 126.508,35.6716 125.842,35.3382 125.5,34.5C 128.167,33.1667 130.833,33.1667 133.5,34.5 Z"/></g>
<g><path style="opacity:0.178" fill="#f40000" d="M 138.5,34.5 C 141.167,33.1667 143.833,33.1667 146.5,34.5C 145.833,34.8333 145.167,35.1667 144.5,35.5C 143.167,35.5 141.833,35.5 140.5,35.5C 140.158,34.6618 139.492,34.3284 138.5,34.5 Z"/></g>
<g><path style="opacity:0.188" fill="#fe0000" d="M 162.5,34.5 C 165.024,33.1997 167.691,33.1997 170.5,34.5C 169.311,35.4287 167.978,35.762 166.5,35.5C 165.432,34.5655 164.099,34.2322 162.5,34.5 Z"/></g>
<g><path style="opacity:0.376" fill="#fe0000" d="M 171.5,33.5 C 172.525,33.8966 172.692,34.5632 172,35.5C 171.536,34.9056 171.369,34.2389 171.5,33.5 Z"/></g>
<g><path style="opacity:0.188" fill="#d80002" d="M 181.5,33.5 C 181.631,34.2389 181.464,34.9056 181,35.5C 178.568,34.5504 176.068,34.5504 173.5,35.5C 175.635,33.631 178.302,32.9644 181.5,33.5 Z"/></g>
<g><path style="opacity:0.87" fill="#080201" d="M 181.5,33.5 C 183.25,34.2328 184.917,34.5662 186.5,34.5C 186.842,35.3382 187.508,35.6716 188.5,35.5C 190.302,38.5742 191.302,41.9076 191.5,45.5C 189.143,45.6633 186.81,45.4966 184.5,45C 183.884,42.8215 182.717,40.9882 181,39.5C 180.075,40.0465 179.242,40.7132 178.5,41.5C 177.376,47.4478 177.21,53.4478 178,59.5C 179.541,62.6238 181.375,62.9571 183.5,60.5C 184.309,58.9291 184.643,57.2624 184.5,55.5C 183.167,55.5 181.833,55.5 180.5,55.5C 180.5,53.5 180.5,51.5 180.5,49.5C 184.167,49.5 187.833,49.5 191.5,49.5C 191.5,55.1667 191.5,60.8333 191.5,66.5C 190.081,67.4511 188.415,67.7845 186.5,67.5C 184.319,68.2751 181.985,68.6084 179.5,68.5C 177.626,67.7148 175.626,67.0482 173.5,66.5C 173.167,66.5 172.833,66.5 172.5,66.5C 168.229,55.9836 168.562,45.6502 173.5,35.5C 176.068,34.5504 178.568,34.5504 181,35.5C 181.464,34.9056 181.631,34.2389 181.5,33.5 Z"/></g>
<g><path style="opacity:0.192" fill="#fe0000" d="M 188.5,35.5 C 187.508,35.6716 186.842,35.3382 186.5,34.5C 189.024,33.1997 191.691,33.1997 194.5,34.5C 192.924,35.0316 190.924,35.3649 188.5,35.5 Z"/></g>
<g><path style="opacity:0.376" fill="#fe0000" d="M 195.5,33.5 C 196.525,33.8966 196.692,34.5632 196,35.5C 195.536,34.9056 195.369,34.2389 195.5,33.5 Z"/></g>
<g><path style="opacity:0.188" fill="#f40000" d="M 205.5,34.5 C 203.922,34.4263 202.255,34.7597 200.5,35.5C 199.325,35.719 198.325,35.3857 197.5,34.5C 200.309,33.1997 202.976,33.1997 205.5,34.5 Z"/></g>
<g><path style="opacity:0.188" fill="#fe0000" d="M 210.5,35.5 C 210.97,34.3065 211.97,33.6399 213.5,33.5C 214.5,33.8333 215.5,34.1667 216.5,34.5C 214.604,35.4656 212.604,35.7989 210.5,35.5 Z"/></g>
<g><path style="opacity:0.282" fill="#fe0000" d="M 217.5,33.5 C 218.525,33.8966 218.692,34.5632 218,35.5C 217.536,34.9056 217.369,34.2389 217.5,33.5 Z"/></g>
<g><path style="opacity:0.188" fill="#fe0000" d="M 232.5,34.5 C 235.024,33.1997 237.691,33.1997 240.5,34.5C 239.311,35.4287 237.978,35.762 236.5,35.5C 235.167,35.1667 233.833,34.8333 232.5,34.5 Z"/></g>
<g><path style="opacity:0.282" fill="#fe0000" d="M 241.5,33.5 C 242.525,33.8966 242.692,34.5632 242,35.5C 241.536,34.9056 241.369,34.2389 241.5,33.5 Z"/></g>
<g><path style="opacity:0.376" fill="#fe0000" d="M 243.5,33.5 C 244.525,33.8966 244.692,34.5632 244,35.5C 243.536,34.9056 243.369,34.2389 243.5,33.5 Z"/></g>
<g><path style="opacity:0.188" fill="#ed0000" d="M 253.5,33.5 C 250.997,34.3705 248.33,35.0372 245.5,35.5C 247.635,33.631 250.302,32.9644 253.5,33.5 Z"/></g>
<g><path style="opacity:0.863" fill="#050100" d="M 253.5,33.5 C 254.609,33.5569 255.609,33.8902 256.5,34.5C 257.833,34.8333 259.167,35.1667 260.5,35.5C 264.687,44.0666 265.521,53.0666 263,62.5C 262.338,63.9839 261.504,65.3172 260.5,66.5C 259.167,66.8333 257.833,67.1667 256.5,67.5C 254.958,68.3007 253.292,68.634 251.5,68.5C 249.626,67.7148 247.626,67.0482 245.5,66.5C 242.385,61.8747 241.051,56.7081 241.5,51C 241.051,45.2919 242.385,40.1253 245.5,35.5C 248.33,35.0372 250.997,34.3705 253.5,33.5 Z M 252.5,39.5 C 254.113,39.9443 255.28,40.9443 256,42.5C 256.667,48.1667 256.667,53.8333 256,59.5C 254.522,62.9931 252.522,63.3264 250,60.5C 249.333,54.5 249.333,48.5 250,42.5C 250.698,41.3094 251.531,40.3094 252.5,39.5 Z"/></g>
<g><path style="opacity:0.188" fill="#fe0000" d="M 256.5,34.5 C 259.024,33.1997 261.691,33.1997 264.5,34.5C 263.311,35.4287 261.978,35.762 260.5,35.5C 259.167,35.1667 257.833,34.8333 256.5,34.5 Z"/></g>
<g><path style="opacity:0.179" fill="#fe0000" d="M 280.5,34.5 C 283.024,33.1997 285.691,33.1997 288.5,34.5C 287.675,35.3857 286.675,35.719 285.5,35.5C 283.784,35.3713 282.117,35.038 280.5,34.5 Z"/></g>
<g><path style="opacity:0.376" fill="#fe0000" d="M 289.5,33.5 C 290.525,33.8966 290.692,34.5632 290,35.5C 289.536,34.9056 289.369,34.2389 289.5,33.5 Z"/></g>
<g><path style="opacity:0.182" fill="#fe0000" d="M 304.5,34.5 C 307.024,33.1997 309.691,33.1997 312.5,34.5C 312.043,35.2975 311.376,35.6309 310.5,35.5C 308.735,34.5386 306.735,34.2053 304.5,34.5 Z"/></g>
<g><path style="opacity:0.376" fill="#fe0000" d="M 313.5,33.5 C 314.525,33.8966 314.692,34.5632 314,35.5C 313.536,34.9056 313.369,34.2389 313.5,33.5 Z"/></g>
<g><path style="opacity:0.345" fill="#fe0000" d="M 315.5,33.5 C 316.525,33.8966 316.692,34.5632 316,35.5C 315.536,34.9056 315.369,34.2389 315.5,33.5 Z"/></g>
<g><path style="opacity:0.188" fill="#fe0000" d="M 325.5,34.5 C 324.508,34.3284 323.842,34.6618 323.5,35.5C 321.396,35.7989 319.396,35.4656 317.5,34.5C 320.309,33.1997 322.976,33.1997 325.5,34.5 Z"/></g>
<g><path style="opacity:0.162" fill="#f40000" d="M 328.5,34.5 C 331.167,33.1667 333.833,33.1667 336.5,34.5C 336.5,35.1667 336.167,35.5 335.5,35.5C 334.167,35.5 332.833,35.5 331.5,35.5C 330.791,34.596 329.791,34.2627 328.5,34.5 Z"/></g>
<g><path style="opacity:0.188" fill="#f70000" d="M 352.5,34.5 C 355.024,33.1997 357.691,33.1997 360.5,34.5C 359.675,35.3857 358.675,35.719 357.5,35.5C 355.958,34.6993 354.292,34.366 352.5,34.5 Z"/></g>
<g><path style="opacity:0.376" fill="#fe0000" d="M 362.5,35.5 C 361.475,35.1034 361.308,34.4368 362,33.5C 362.464,34.0944 362.631,34.7611 362.5,35.5 Z"/></g>
<g><path style="opacity:0.188" fill="#f00000" d="M 384.5,34.5 C 383.635,34.5639 382.635,34.8973 381.5,35.5C 380.167,35.5 378.833,35.5 377.5,35.5C 377.167,35.5 376.833,35.5 376.5,35.5C 377.334,34.2521 378.667,33.5854 380.5,33.5C 382.045,33.5108 383.378,33.8442 384.5,34.5 Z"/></g>
<g><path style="opacity:0.176" fill="#f70000" d="M 400.5,34.5 C 403.167,33.1667 405.833,33.1667 408.5,34.5C 407.209,34.2627 406.209,34.596 405.5,35.5C 404.833,35.5 404.167,35.5 403.5,35.5C 402.609,34.8902 401.609,34.5569 400.5,34.5 Z"/></g>
<g><path style="opacity:0.188" fill="#ea0001" d="M 419.5,34.5 C 417.922,34.4263 416.255,34.7597 414.5,35.5C 413.833,35.5 413.167,35.5 412.5,35.5C 411.833,35.5 411.5,35.1667 411.5,34.5C 414.167,33.1667 416.833,33.1667 419.5,34.5 Z"/></g>
<g><path style="opacity:0.188" fill="#f30000" d="M 443.5,34.5 C 441.595,34.378 439.595,34.7113 437.5,35.5C 436.833,35.5 436.167,35.5 435.5,35.5C 435.5,35.1667 435.5,34.8333 435.5,34.5C 438.167,33.1667 440.833,33.1667 443.5,34.5 Z"/></g>
<g><path style="opacity:0.188" fill="#e90001" d="M 467.5,34.5 C 465.036,34.2757 462.369,34.609 459.5,35.5C 460.334,34.2521 461.667,33.5854 463.5,33.5C 465.045,33.5108 466.378,33.8442 467.5,34.5 Z"/></g>
<g><path style="opacity:0.2" fill="#fe0000" d="M 496.5,34.5 C 499.024,33.1997 501.691,33.1997 504.5,34.5C 503.675,35.3857 502.675,35.719 501.5,35.5C 500.081,34.5489 498.415,34.2155 496.5,34.5 Z"/></g>
<g><path style="opacity:0.376" fill="#fe0000" d="M 505.5,33.5 C 506.525,33.8966 506.692,34.5632 506,35.5C 505.536,34.9056 505.369,34.2389 505.5,33.5 Z"/></g>
<g><path style="opacity:0.18" fill="#fe0000" d="M 507.5,33.5 C 510.247,33.1866 512.914,33.52 515.5,34.5C 514.167,34.8333 512.833,35.1667 511.5,35.5C 509.667,35.4146 508.334,34.7479 507.5,33.5 Z"/></g>
<g><path style="opacity:0.376" fill="#fe0000" d="M 517.5,35.5 C 516.475,35.1034 516.308,34.4368 517,33.5C 517.464,34.0944 517.631,34.7611 517.5,35.5 Z"/></g>
<g><path style="opacity:0.188" fill="#fe0000" d="M 539.5,34.5 C 539.5,34.8333 539.5,35.1667 539.5,35.5C 537.167,35.5 534.833,35.5 532.5,35.5C 531.833,35.5 531.5,35.1667 531.5,34.5C 534.167,33.1667 536.833,33.1667 539.5,34.5 Z"/></g>
<g><path style="opacity:0.188" fill="#fe0000" d="M 555.5,34.5 C 558.024,33.1997 560.691,33.1997 563.5,34.5C 561.604,35.4656 559.604,35.7989 557.5,35.5C 557.158,34.6618 556.492,34.3284 555.5,34.5 Z"/></g>
<g><path style="opacity:0.376" fill="#fe0000" d="M 564.5,33.5 C 565.525,33.8966 565.692,34.5632 565,35.5C 564.536,34.9056 564.369,34.2389 564.5,33.5 Z"/></g>
<g><path style="opacity:0.195" fill="#f20001" d="M 574.5,34.5 C 572.267,34.3444 569.933,34.6777 567.5,35.5C 566.957,35.44 566.624,35.1067 566.5,34.5C 569.309,33.1997 571.976,33.1997 574.5,34.5 Z"/></g>
<g><path style="opacity:0.188" fill="#f00001" d="M 590.5,34.5 C 593.167,33.1667 595.833,33.1667 598.5,34.5C 596.144,34.6845 593.477,34.6845 590.5,34.5 Z"/></g>
<g><path style="opacity:0.183" fill="#fe0000" d="M 603.5,34.5 C 606.024,33.1997 608.691,33.1997 611.5,34.5C 610.675,35.3857 609.675,35.719 608.5,35.5C 607.081,34.5489 605.415,34.2155 603.5,34.5 Z"/></g>
<g><path style="opacity:0.376" fill="#fe0000" d="M 612.5,33.5 C 613.525,33.8966 613.692,34.5632 613,35.5C 612.536,34.9056 612.369,34.2389 612.5,33.5 Z"/></g>
<g><path style="opacity:0.188" fill="#e30001" d="M 622.5,33.5 C 622.631,34.2389 622.464,34.9056 622,35.5C 619.541,34.3511 617.041,34.3511 614.5,35.5C 616.635,33.631 619.302,32.9644 622.5,33.5 Z"/></g>
<g><path style="opacity:0.859" fill="#070101" d="M 622.5,33.5 C 624.25,34.2328 625.917,34.5662 627.5,34.5C 627.842,35.3382 628.508,35.6716 629.5,35.5C 631.511,38.869 632.511,42.5357 632.5,46.5C 629.833,46.5 627.167,46.5 624.5,46.5C 624.97,43.6544 624.137,41.3211 622,39.5C 620.667,40.1667 619.667,41.1667 619,42.5C 618.333,48.5 618.333,54.5 619,60.5C 620.133,62.2112 621.633,62.7112 623.5,62C 624.867,59.6985 625.534,57.1985 625.5,54.5C 627.833,54.5 630.167,54.5 632.5,54.5C 632.97,58.905 631.97,62.905 629.5,66.5C 628.508,66.3284 627.842,66.6618 627.5,67.5C 625.917,67.4338 624.25,67.7672 622.5,68.5C 619.947,67.7451 617.28,67.0784 614.5,66.5C 610.237,57.9446 609.404,48.9446 612,39.5C 612.662,38.0161 613.496,36.6828 614.5,35.5C 617.041,34.3511 619.541,34.3511 622,35.5C 622.464,34.9056 622.631,34.2389 622.5,33.5 Z"/></g>
<g><path style="opacity:0.176" fill="#fe0000" d="M 635.5,34.5 C 635.5,34.8333 635.5,35.1667 635.5,35.5C 633.5,35.5 631.5,35.5 629.5,35.5C 628.508,35.6716 627.842,35.3382 627.5,34.5C 630.167,33.1667 632.833,33.1667 635.5,34.5 Z"/></g>
<g><path style="opacity:0.188" fill="#fe0000" d="M 651.5,34.5 C 654.167,33.1667 656.833,33.1667 659.5,34.5C 659.5,34.8333 659.5,35.1667 659.5,35.5C 658.5,35.5 657.5,35.5 656.5,35.5C 655.081,34.5489 653.415,34.2155 651.5,34.5 Z"/></g>
<g><path style="opacity:0.182" fill="#fe0000" d="M 662.5,34.5 C 665.024,33.1997 667.691,33.1997 670.5,34.5C 670.043,35.2975 669.376,35.6309 668.5,35.5C 666.735,34.5386 664.735,34.2053 662.5,34.5 Z"/></g>
<g><path style="opacity:0.376" fill="#fe0000" d="M 671.5,33.5 C 672.525,33.8966 672.692,34.5632 672,35.5C 671.536,34.9056 671.369,34.2389 671.5,33.5 Z"/></g>
<g><path style="opacity:0.314" fill="#fe0000" d="M 673.5,33.5 C 674.525,33.8966 674.692,34.5632 674,35.5C 673.536,34.9056 673.369,34.2389 673.5,33.5 Z"/></g>
<g><path style="opacity:0.188" fill="#f30000" d="M 675.5,34.5 C 678.024,33.1997 680.691,33.1997 683.5,34.5C 683.043,35.2975 682.376,35.6309 681.5,35.5C 679.621,34.6586 677.621,34.3253 675.5,34.5 Z"/></g>
<g><path style="opacity:0.376" fill="#fe0000" d="M 684.5,33.5 C 685.525,33.8966 685.692,34.5632 685,35.5C 684.536,34.9056 684.369,34.2389 684.5,33.5 Z"/></g>
<g><path style="opacity:0.178" fill="#fe0000" d="M 694.5,33.5 C 692.698,34.4582 690.698,35.1249 688.5,35.5C 687.624,35.6309 686.957,35.2975 686.5,34.5C 689.086,33.52 691.753,33.1866 694.5,33.5 Z"/></g>
<g><path style="opacity:0.862" fill="#060100" d="M 694.5,33.5 C 696.292,33.366 697.958,33.6993 699.5,34.5C 700.833,34.8333 702.167,35.1667 703.5,35.5C 707.763,44.0554 708.596,53.0554 706,62.5C 705.338,63.9839 704.504,65.3172 703.5,66.5C 702.167,66.8333 700.833,67.1667 699.5,67.5C 697.958,68.3007 696.292,68.634 694.5,68.5C 692.698,67.5418 690.698,66.8751 688.5,66.5C 685.465,62.0329 684.132,57.0329 684.5,51.5C 684.196,45.6634 685.53,40.33 688.5,35.5C 690.698,35.1249 692.698,34.4582 694.5,33.5 Z M 695.5,39.5 C 697.113,39.9443 698.28,40.9443 699,42.5C 699.667,48.1667 699.667,53.8333 699,59.5C 697.522,62.9931 695.522,63.3264 693,60.5C 692.333,54.5 692.333,48.5 693,42.5C 693.698,41.3094 694.531,40.3094 695.5,39.5 Z"/></g>
<g><path style="opacity:0.193" fill="#fe0000" d="M 699.5,34.5 C 702.024,33.1997 704.691,33.1997 707.5,34.5C 706.39,34.3758 705.056,34.7091 703.5,35.5C 702.167,35.1667 700.833,34.8333 699.5,34.5 Z"/></g>
<g><path style="opacity:0.376" fill="#fe0000" d="M 708.5,33.5 C 709.525,33.8966 709.692,34.5632 709,35.5C 708.536,34.9056 708.369,34.2389 708.5,33.5 Z"/></g>
<g><path style="opacity:0.202" fill="#fe0000" d="M 710.5,34.5 C 713.024,33.1997 715.691,33.1997 718.5,34.5C 718.376,35.1067 718.043,35.44 717.5,35.5C 715.393,34.5318 713.059,34.1984 710.5,34.5 Z"/></g>
<g><path style="opacity:0.376" fill="#fe0000" d="M 719.5,33.5 C 720.525,33.8966 720.692,34.5632 720,35.5C 719.536,34.9056 719.369,34.2389 719.5,33.5 Z"/></g>
<g><path style="opacity:0.192" fill="#fe0000" d="M 721.5,33.5 C 724.247,33.1866 726.914,33.52 729.5,34.5C 726.868,35.2569 724.368,35.5902 722,35.5C 721.536,34.9056 721.369,34.2389 721.5,33.5 Z"/></g>
<g><path style="opacity:0.282" fill="#fe0000" d="M 730.5,33.5 C 731.525,33.8966 731.692,34.5632 731,35.5C 730.536,34.9056 730.369,34.2389 730.5,33.5 Z"/></g>
<g><path style="opacity:0.376" fill="#fe0000" d="M 733.5,35.5 C 732.475,35.1034 732.308,34.4368 733,33.5C 733.464,34.0944 733.631,34.7611 733.5,35.5 Z"/></g>
<g><path style="opacity:0.209" fill="#f80000" d="M 740.5,33.5 C 738.626,34.2852 736.626,34.9518 734.5,35.5C 735.918,33.6921 737.918,33.0254 740.5,33.5 Z"/></g>
<g><path style="opacity:0.18" fill="#f70000" d="M 748.5,35.5 C 747.209,35.7373 746.209,35.404 745.5,34.5C 748.024,33.1997 750.691,33.1997 753.5,34.5C 751.955,35.4519 750.288,35.7852 748.5,35.5 Z"/></g>
<g><path style="opacity:0.282" fill="#fe0000" d="M 754.5,33.5 C 755.525,33.8966 755.692,34.5632 755,35.5C 754.536,34.9056 754.369,34.2389 754.5,33.5 Z"/></g>
<g><path style="opacity:0.376" fill="#fe0000" d="M 756.5,33.5 C 757.525,33.8966 757.692,34.5632 757,35.5C 756.536,34.9056 756.369,34.2389 756.5,33.5 Z"/></g>
<g><path style="opacity:0.18" fill="#ed0000" d="M 766.5,33.5 C 763.997,34.3705 761.33,35.0372 758.5,35.5C 760.635,33.631 763.302,32.9644 766.5,33.5 Z"/></g>
<g><path style="opacity:0.873" fill="#060101" d="M 766.5,33.5 C 767.609,33.5569 768.609,33.8902 769.5,34.5C 770.833,34.8333 772.167,35.1667 773.5,35.5C 775.693,38.4182 776.693,41.7515 776.5,45.5C 774.076,45.8076 771.743,45.4742 769.5,44.5C 768.826,42.4835 767.659,40.8168 766,39.5C 763.036,42.7012 761.87,46.5345 762.5,51C 762.569,54.0407 762.902,57.0407 763.5,60C 764.371,61.7693 765.704,62.436 767.5,62C 769.016,60.103 769.683,57.9363 769.5,55.5C 768.167,55.5 766.833,55.5 765.5,55.5C 765.5,53.5 765.5,51.5 765.5,49.5C 769.167,49.5 772.833,49.5 776.5,49.5C 776.5,55.1667 776.5,60.8333 776.5,66.5C 775.081,67.4511 773.415,67.7845 771.5,67.5C 771.539,65.7761 771.206,65.4427 770.5,66.5C 769.833,66.5 769.5,66.8333 769.5,67.5C 767.917,67.4338 766.25,67.7672 764.5,68.5C 762.626,67.7148 760.626,67.0482 758.5,66.5C 753.179,56.2252 753.179,45.8919 758.5,35.5C 761.33,35.0372 763.997,34.3705 766.5,33.5 Z"/></g>
<g><path style="opacity:0.188" fill="#fe0000" d="M 769.5,34.5 C 772.167,33.1667 774.833,33.1667 777.5,34.5C 777.5,34.8333 777.5,35.1667 777.5,35.5C 776.167,35.5 774.833,35.5 773.5,35.5C 772.167,35.1667 770.833,34.8333 769.5,34.5 Z"/></g>
<g><path style="opacity:0.173" fill="#fb0000" d="M 782.5,34.5 C 785.024,33.1997 787.691,33.1997 790.5,34.5C 789.311,35.4287 787.978,35.762 786.5,35.5C 785.292,34.7659 783.959,34.4326 782.5,34.5 Z"/></g>
<g><path style="opacity:0.376" fill="#fe0000" d="M 791.5,33.5 C 792.525,33.8966 792.692,34.5632 792,35.5C 791.536,34.9056 791.369,34.2389 791.5,33.5 Z"/></g>
<g><path style="opacity:0.376" fill="#fe0000" d="M 803.5,33.5 C 803.5,34.1667 803.5,34.8333 803.5,35.5C 802.167,34.8333 802.167,34.1667 803.5,33.5 Z"/></g>
<g><path style="opacity:0.875" fill="#0f0401" d="M 114.5,34.5 C 114.435,34.9382 114.601,35.2716 115,35.5C 116.302,34.9152 117.469,34.2485 118.5,33.5C 121.165,33.7833 123.499,34.1166 125.5,34.5C 125.842,35.3382 126.508,35.6716 127.5,35.5C 129.126,38.2457 129.793,41.2457 129.5,44.5C 127.167,44.5 124.833,44.5 122.5,44.5C 122.773,42.0418 121.773,40.3751 119.5,39.5C 115.921,41.1601 115.588,43.3267 118.5,46C 123.005,47.6565 126.839,50.1565 130,53.5C 131.257,58.3831 130.424,62.7165 127.5,66.5C 127.167,66.5 126.833,66.5 126.5,66.5C 125.833,66.5 125.5,66.8333 125.5,67.5C 121.488,68.3507 117.321,68.6841 113,68.5C 112.722,67.5842 112.222,66.9175 111.5,66.5C 109.583,63.5092 108.583,60.1758 108.5,56.5C 111.167,56.5 113.833,56.5 116.5,56.5C 117.101,63.1465 119.434,63.9798 123.5,59C 121.42,55.7818 118.42,53.7818 114.5,53C 109.777,49.7464 108.277,45.2464 110,39.5C 111.439,37.7254 112.439,35.7254 113,33.5C 113.383,34.056 113.883,34.3893 114.5,34.5 Z"/></g>
<g><path style="opacity:0.188" fill="#ea0001" d="M 118.5,33.5 C 117.469,34.2485 116.302,34.9152 115,35.5C 114.601,35.2716 114.435,34.9382 114.5,34.5C 115.568,33.5655 116.901,33.2322 118.5,33.5 Z"/></g>
<g><path style="opacity:0.954" fill="#0c0301" d="M 138.5,34.5 C 139.492,34.3284 140.158,34.6618 140.5,35.5C 140.5,45.8333 140.5,56.1667 140.5,66.5C 140.158,67.3382 139.492,67.6716 138.5,67.5C 136.833,67.5 135.167,67.5 133.5,67.5C 133.5,67.1667 133.5,66.8333 133.5,66.5C 133.5,56.1667 133.5,45.8333 133.5,35.5C 133.5,35.1667 133.5,34.8333 133.5,34.5C 135.167,34.5 136.833,34.5 138.5,34.5 Z"/></g>
<g><path style="opacity:0.884" fill="#0a0201" d="M 149.5,34.5 C 151.099,34.2322 152.432,34.5655 153.5,35.5C 159.177,57.0687 160.844,56.7354 158.5,34.5C 159.685,34.1236 161.018,34.1236 162.5,34.5C 164.099,34.2322 165.432,34.5655 166.5,35.5C 166.5,45.8333 166.5,56.1667 166.5,66.5C 165.432,67.4345 164.099,67.7678 162.5,67.5C 161.312,68.0476 160.145,68.3809 159,68.5C 158.722,67.5842 158.222,66.9175 157.5,66.5C 155.778,60.8318 153.944,55.1651 152,49.5C 151.501,55.1569 151.334,60.8236 151.5,66.5C 151.158,67.3382 150.492,67.6716 149.5,67.5C 148.5,68.8333 147.5,68.8333 146.5,67.5C 145.508,67.6716 144.842,67.3382 144.5,66.5C 144.5,56.1667 144.5,45.8333 144.5,35.5C 145.167,35.1667 145.833,34.8333 146.5,34.5C 147.5,33.1667 148.5,33.1667 149.5,34.5 Z M 157.5,66.5 C 155.5,66.5 153.5,66.5 151.5,66.5C 151.334,60.8236 151.501,55.1569 152,49.5C 153.944,55.1651 155.778,60.8318 157.5,66.5 Z"/></g>
<g><path style="opacity:0.183" fill="#fe0000" d="M 149.5,34.5 C 152.024,33.1997 154.691,33.1997 157.5,34.5C 156.311,35.4287 154.978,35.762 153.5,35.5C 152.432,34.5655 151.099,34.2322 149.5,34.5 Z"/></g>
<g><path style="opacity:0.89" fill="#0e0301" d="M 210.5,35.5 C 212.85,46.2314 215.516,56.898 218.5,67.5C 216.273,68.1906 213.606,68.524 210.5,68.5C 209.908,65.8728 209.575,63.2062 209.5,60.5C 206.833,60.5 204.167,60.5 201.5,60.5C 201.167,62.5 200.833,64.5 200.5,66.5C 199.791,67.404 198.791,67.7373 197.5,67.5C 196.5,68.8333 195.5,68.8333 194.5,67.5C 193.508,67.6716 192.842,67.3382 192.5,66.5C 195.323,56.2095 197.989,45.8762 200.5,35.5C 202.255,34.7597 203.922,34.4263 205.5,34.5C 206.688,33.9524 207.855,33.6191 209,33.5C 209.278,34.4158 209.778,35.0825 210.5,35.5 Z M 204.5,44.5 C 206.243,47.4952 207.243,50.8285 207.5,54.5C 206.167,54.5 204.833,54.5 203.5,54.5C 203.833,51.1667 204.167,47.8333 204.5,44.5 Z"/></g>
<g><path style="opacity:0.915" fill="#090201" d="M 221.5,34.5 C 224.477,34.6845 227.144,34.6845 229.5,34.5C 230.5,33.1667 231.5,33.1667 232.5,34.5C 233.833,34.8333 235.167,35.1667 236.5,35.5C 242.314,42.4331 241.648,48.5998 234.5,54C 231.854,54.4974 229.187,54.6641 226.5,54.5C 226.5,58.5 226.5,62.5 226.5,66.5C 225.081,67.4511 223.415,67.7845 221.5,67.5C 220.883,67.6107 220.383,67.944 220,68.5C 219.333,56.8333 219.333,45.1667 220,33.5C 220.383,34.056 220.883,34.3893 221.5,34.5 Z M 226.5,40.5 C 232.313,40.062 233.98,42.562 231.5,48C 229.975,49.0086 228.308,49.5086 226.5,49.5C 226.5,46.5 226.5,43.5 226.5,40.5 Z"/></g>
<g><path style="opacity:0.188" fill="#f00001" d="M 221.5,34.5 C 224.167,33.1667 226.833,33.1667 229.5,34.5C 227.144,34.6845 224.477,34.6845 221.5,34.5 Z"/></g>
<g><path style="opacity:0.861" fill="#110401" d="M 280.5,34.5 C 282.117,35.038 283.784,35.3713 285.5,35.5C 289.805,41.1097 289.472,46.2764 284.5,51C 285.333,51.8333 286.167,52.6667 287,53.5C 287.426,58.4278 288.593,63.0945 290.5,67.5C 290.03,68.463 289.363,68.463 288.5,67.5C 285.721,67.7214 283.054,67.388 280.5,66.5C 280.665,62.8183 280.499,59.1516 280,55.5C 278.301,54.5939 276.467,54.2606 274.5,54.5C 274.5,58.5 274.5,62.5 274.5,66.5C 273.081,67.4511 271.415,67.7845 269.5,67.5C 268.018,67.8764 266.685,67.8764 265.5,67.5C 266.833,56.5 266.833,45.5 265.5,34.5C 270.157,33.3334 275.157,33.3334 280.5,34.5 Z M 274.5,40.5 C 280.235,39.8213 281.902,42.1546 279.5,47.5C 277.929,48.3094 276.262,48.6427 274.5,48.5C 274.5,45.8333 274.5,43.1667 274.5,40.5 Z"/></g>
<g><path style="opacity:0.903" fill="#160602" d="M 304.5,34.5 C 306.735,34.2053 308.735,34.5386 310.5,35.5C 310.5,37.1667 310.5,38.8333 310.5,40.5C 306.833,40.5 303.167,40.5 299.5,40.5C 299.5,42.8333 299.5,45.1667 299.5,47.5C 302.833,47.5 306.167,47.5 309.5,47.5C 309.5,49.5 309.5,51.5 309.5,53.5C 306.167,53.5 302.833,53.5 299.5,53.5C 299.5,56.1667 299.5,58.8333 299.5,61.5C 303.167,61.5 306.833,61.5 310.5,61.5C 310.5,63.1667 310.5,64.8333 310.5,66.5C 308.735,67.4614 306.735,67.7947 304.5,67.5C 300.488,68.3507 296.321,68.6841 292,68.5C 291.333,56.8333 291.333,45.1667 292,33.5C 296.321,33.3159 300.488,33.6493 304.5,34.5 Z"/></g>
<g><path style="opacity:0.838" fill="#0a0200" d="M 328.5,34.5 C 329.791,34.2627 330.791,34.596 331.5,35.5C 331.5,45.8333 331.5,56.1667 331.5,66.5C 330.791,67.404 329.791,67.7373 328.5,67.5C 327.5,68.8333 326.5,68.8333 325.5,67.5C 324.508,67.6716 323.842,67.3382 323.5,66.5C 323.5,56.1667 323.5,45.8333 323.5,35.5C 323.842,34.6618 324.508,34.3284 325.5,34.5C 326.5,33.1667 327.5,33.1667 328.5,34.5 Z"/></g>
<g><path style="opacity:0.916" fill="#090201" d="M 341.5,34.5 C 342.492,34.3284 343.158,34.6618 343.5,35.5C 345.953,41.3571 348.12,47.3571 350,53.5C 350.333,46.8333 350.667,40.1667 351,33.5C 351.383,34.056 351.883,34.3893 352.5,34.5C 354.292,34.366 355.958,34.6993 357.5,35.5C 357.5,45.8333 357.5,56.1667 357.5,66.5C 356.081,67.4511 354.415,67.7845 352.5,67.5C 351.5,68.8333 350.5,68.8333 349.5,67.5C 349.167,67.5 348.833,67.5 348.5,67.5C 346.637,61.0782 344.47,54.7449 342,48.5C 341.501,54.4908 341.334,60.4908 341.5,66.5C 341.5,66.8333 341.5,67.1667 341.5,67.5C 339.833,67.5 338.167,67.5 336.5,67.5C 336.167,67.5 335.833,67.5 335.5,67.5C 335.5,56.8333 335.5,46.1667 335.5,35.5C 336.167,35.5 336.5,35.1667 336.5,34.5C 338.167,34.5 339.833,34.5 341.5,34.5 Z M 348.5,67.5 C 346.283,66.6314 343.95,66.298 341.5,66.5C 341.334,60.4908 341.501,54.4908 342,48.5C 344.47,54.7449 346.637,61.0782 348.5,67.5 Z"/></g>
<g><path style="opacity:0.188" fill="#fe0000" d="M 341.5,34.5 C 344.024,33.1997 346.691,33.1997 349.5,34.5C 347.604,35.4656 345.604,35.7989 343.5,35.5C 343.158,34.6618 342.492,34.3284 341.5,34.5 Z"/></g>
<g><path style="opacity:0.866" fill="#130501" d="M 376.5,35.5 C 376.833,35.5 377.167,35.5 377.5,35.5C 379.871,37.9966 380.871,40.9966 380.5,44.5C 378.076,44.8076 375.743,44.4742 373.5,43.5C 371.701,38.4115 369.701,38.2449 367.5,43C 367.585,44.1074 367.919,45.1074 368.5,46C 380.938,48.7029 384.271,55.5362 378.5,66.5C 378.167,66.5 377.833,66.5 377.5,66.5C 376.833,66.5 376.5,66.8333 376.5,67.5C 372.488,68.3507 368.321,68.6841 364,68.5C 363.333,65.8333 362.667,65.8333 362,68.5C 360.011,64.747 359.178,60.747 359.5,56.5C 361.833,56.5 364.167,56.5 366.5,56.5C 366.014,60.509 367.68,62.3423 371.5,62C 373.967,59.9567 373.967,57.7901 371.5,55.5C 359.705,52.587 356.705,45.9204 362.5,35.5C 363.222,35.0825 363.722,34.4158 364,33.5C 367.667,33.5 371.333,33.5 375,33.5C 375.278,34.4158 375.778,35.0825 376.5,35.5 Z"/></g>
<g><path style="opacity:0.843" fill="#0c0301" d="M 387.5,34.5 C 390.477,34.6845 393.144,34.6845 395.5,34.5C 397.167,34.5 398.833,34.5 400.5,34.5C 401.609,34.5569 402.609,34.8902 403.5,35.5C 403.5,37.1667 403.5,38.8333 403.5,40.5C 401.167,40.5 398.833,40.5 396.5,40.5C 396.194,49.5542 396.528,58.5542 397.5,67.5C 397.03,68.463 396.363,68.463 395.5,67.5C 392.941,67.8016 390.607,67.4682 388.5,66.5C 388.5,57.8333 388.5,49.1667 388.5,40.5C 386.167,40.5 383.833,40.5 381.5,40.5C 381.5,38.8333 381.5,37.1667 381.5,35.5C 382.635,34.8973 383.635,34.5639 384.5,34.5C 385.5,33.1667 386.5,33.1667 387.5,34.5 Z"/></g>
<g><path style="opacity:0.188" fill="#f00001" d="M 387.5,34.5 C 390.167,33.1667 392.833,33.1667 395.5,34.5C 393.144,34.6845 390.477,34.6845 387.5,34.5 Z"/></g>
<g><path style="opacity:0.958" fill="#090201" d="M 411.5,34.5 C 411.5,35.1667 411.833,35.5 412.5,35.5C 412.5,46.1667 412.5,56.8333 412.5,67.5C 412.167,67.5 411.833,67.5 411.5,67.5C 410.5,68.8333 409.5,68.8333 408.5,67.5C 407.209,67.7373 406.209,67.404 405.5,66.5C 405.5,56.1667 405.5,45.8333 405.5,35.5C 406.209,34.596 407.209,34.2627 408.5,34.5C 409.5,33.1667 410.5,33.1667 411.5,34.5 Z"/></g>
<g><path style="opacity:0.958" fill="#160602" d="M 435.5,34.5 C 435.5,34.8333 435.5,35.1667 435.5,35.5C 435.5,37.1667 435.5,38.8333 435.5,40.5C 433.167,40.5 430.833,40.5 428.5,40.5C 428.5,49.1667 428.5,57.8333 428.5,66.5C 427.432,67.4345 426.099,67.7678 424.5,67.5C 423.018,67.8764 421.685,67.8764 420.5,67.5C 421.472,58.5542 421.806,49.5542 421.5,40.5C 419.167,40.5 416.833,40.5 414.5,40.5C 414.5,38.8333 414.5,37.1667 414.5,35.5C 416.255,34.7597 417.922,34.4263 419.5,34.5C 424.562,33.3999 429.895,33.3999 435.5,34.5 Z"/></g>
<g><path style="opacity:0.894" fill="#090201" d="M 450.5,35.5 C 452.693,34.6562 454.693,34.3229 456.5,34.5C 457.117,34.3893 457.617,34.056 458,33.5C 458.667,42.8333 458.667,52.1667 458,61.5C 457.634,63.4517 456.801,65.1184 455.5,66.5C 455.167,66.5 454.833,66.5 454.5,66.5C 453.005,66.9887 451.671,67.6554 450.5,68.5C 448.05,68.702 445.717,68.3686 443.5,67.5C 442.167,67.1667 440.833,66.8333 439.5,66.5C 439.013,65.5266 438.513,64.5266 438,63.5C 437.5,54.1726 437.334,44.8393 437.5,35.5C 439.595,34.7113 441.595,34.378 443.5,34.5C 444.363,33.537 445.03,33.537 445.5,34.5C 444.363,43.1182 444.196,51.7849 445,60.5C 446.396,62.5268 448.062,62.8602 450,61.5C 450.5,52.8397 450.666,44.1731 450.5,35.5 Z"/></g>
<g><path style="opacity:0.182" fill="#ec0000" d="M 456.5,34.5 C 454.693,34.3229 452.693,34.6562 450.5,35.5C 449.624,35.6309 448.957,35.2975 448.5,34.5C 451.309,33.1997 453.976,33.1997 456.5,34.5 Z"/></g>
<g><path style="opacity:0.376" fill="#fe0000" d="M 446.5,33.5 C 447.525,33.8966 447.692,34.5632 447,35.5C 446.536,34.9056 446.369,34.2389 446.5,33.5 Z"/></g>
<g><path style="opacity:0.884" fill="#140501" d="M 474.5,66.5 C 474.158,67.3382 473.492,67.6716 472.5,67.5C 470.833,67.5 469.167,67.5 467.5,67.5C 466.833,67.5 466.5,67.1667 466.5,66.5C 466.5,57.8333 466.5,49.1667 466.5,40.5C 464.167,40.5 461.833,40.5 459.5,40.5C 459.5,38.8333 459.5,37.1667 459.5,35.5C 462.369,34.609 465.036,34.2757 467.5,34.5C 471.212,34.0226 475.545,33.6892 480.5,33.5C 480.5,35.8333 480.5,38.1667 480.5,40.5C 478.5,40.5 476.5,40.5 474.5,40.5C 474.5,49.1667 474.5,57.8333 474.5,66.5 Z"/></g>
<g><path style="opacity:0.9" fill="#130501" d="M 483.5,34.5 C 486.477,34.6845 489.144,34.6845 491.5,34.5C 493.167,34.5 494.833,34.5 496.5,34.5C 498.415,34.2155 500.081,34.5489 501.5,35.5C 501.5,37.1667 501.5,38.8333 501.5,40.5C 497.833,40.5 494.167,40.5 490.5,40.5C 490.5,42.8333 490.5,45.1667 490.5,47.5C 493.833,47.5 497.167,47.5 500.5,47.5C 500.5,49.5 500.5,51.5 500.5,53.5C 497.167,53.5 493.833,53.5 490.5,53.5C 490.5,56.1667 490.5,58.8333 490.5,61.5C 494.167,61.5 497.833,61.5 501.5,61.5C 501.5,63.1667 501.5,64.8333 501.5,66.5C 500.081,67.4511 498.415,67.7845 496.5,67.5C 491.701,68.534 486.701,68.534 481.5,67.5C 482.833,56.5 482.833,45.5 481.5,34.5C 481.97,33.537 482.637,33.537 483.5,34.5 Z"/></g>
<g><path style="opacity:0.188" fill="#f00001" d="M 483.5,34.5 C 486.167,33.1667 488.833,33.1667 491.5,34.5C 489.144,34.6845 486.477,34.6845 483.5,34.5 Z"/></g>
<g><path style="opacity:0.89" fill="#110501" d="M 531.5,34.5 C 531.5,35.1667 531.833,35.5 532.5,35.5C 535.87,40.0635 537.204,45.2301 536.5,51C 537.209,56.8201 535.876,61.9868 532.5,66.5C 531.833,66.5 531.5,66.8333 531.5,67.5C 527.488,68.3507 523.321,68.6841 519,68.5C 518.722,67.5842 518.222,66.9175 517.5,66.5C 512.18,56.2029 512.18,45.8696 517.5,35.5C 518.222,35.0825 518.722,34.4158 519,33.5C 523.321,33.3159 527.488,33.6493 531.5,34.5 Z M 524.5,39.5 C 525.721,40.0283 526.887,40.695 528,41.5C 530,47.8333 530,54.1667 528,60.5C 525.478,63.3264 523.478,62.9931 522,59.5C 521.333,53.8333 521.333,48.1667 522,42.5C 523.045,41.6266 523.878,40.6266 524.5,39.5 Z"/></g>
<g><path style="opacity:0.928" fill="#0d0301" d="M 544.5,34.5 C 546.81,34.7583 548.81,34.7583 550.5,34.5C 552.167,34.5 553.833,34.5 555.5,34.5C 556.492,34.3284 557.158,34.6618 557.5,35.5C 557.5,37.1667 557.5,38.8333 557.5,40.5C 553.833,40.5 550.167,40.5 546.5,40.5C 546.5,42.8333 546.5,45.1667 546.5,47.5C 550.167,47.5 553.833,47.5 557.5,47.5C 557.5,49.5 557.5,51.5 557.5,53.5C 553.833,53.5 550.167,53.5 546.5,53.5C 546.5,57.8333 546.5,62.1667 546.5,66.5C 546.158,67.3382 545.492,67.6716 544.5,67.5C 542.833,67.5 541.167,67.5 539.5,67.5C 539.5,67.1667 539.5,66.8333 539.5,66.5C 539.5,56.1667 539.5,45.8333 539.5,35.5C 539.5,35.1667 539.5,34.8333 539.5,34.5C 541.167,34.5 542.833,34.5 544.5,34.5 Z"/></g>
<g><path style="opacity:0.188" fill="#ed0001" d="M 544.5,34.5 C 546.5,33.1667 548.5,33.1667 550.5,34.5C 548.81,34.7583 546.81,34.7583 544.5,34.5 Z"/></g>
<g><path style="opacity:0.934" fill="#160602" d="M 581.5,66.5 C 581.158,67.3382 580.492,67.6716 579.5,67.5C 577.833,67.5 576.167,67.5 574.5,67.5C 574.5,67.1667 574.5,66.8333 574.5,66.5C 574.5,57.8333 574.5,49.1667 574.5,40.5C 572.167,40.5 569.833,40.5 567.5,40.5C 567.5,38.8333 567.5,37.1667 567.5,35.5C 569.933,34.6777 572.267,34.3444 574.5,34.5C 578.92,33.8647 583.753,33.5314 589,33.5C 588.793,35.7513 588.627,38.0846 588.5,40.5C 586.167,40.5 583.833,40.5 581.5,40.5C 581.5,49.1667 581.5,57.8333 581.5,66.5 Z"/></g>
<g><path style="opacity:0.935" fill="#120401" d="M 603.5,34.5 C 605.415,34.2155 607.081,34.5489 608.5,35.5C 608.5,37.1667 608.5,38.8333 608.5,40.5C 604.833,40.5 601.167,40.5 597.5,40.5C 597.5,42.8333 597.5,45.1667 597.5,47.5C 601.167,47.5 604.833,47.5 608.5,47.5C 608.5,49.5 608.5,51.5 608.5,53.5C 604.833,53.5 601.167,53.5 597.5,53.5C 597.5,56.1667 597.5,58.8333 597.5,61.5C 601.5,61.5 605.5,61.5 609.5,61.5C 609.5,63.5 609.5,65.5 609.5,67.5C 607.5,67.5 605.5,67.5 603.5,67.5C 599.788,67.9774 595.455,68.3108 590.5,68.5C 590.5,57.1667 590.5,45.8333 590.5,34.5C 593.477,34.6845 596.144,34.6845 598.5,34.5C 600.167,34.5 601.833,34.5 603.5,34.5 Z"/></g>
<g><path style="opacity:0.933" fill="#080201" d="M 638.5,34.5 C 640.099,34.2322 641.432,34.5655 642.5,35.5C 642.5,39.1667 642.5,42.8333 642.5,46.5C 644.833,46.5 647.167,46.5 649.5,46.5C 649.334,42.1539 649.501,37.8206 650,33.5C 650.383,34.056 650.883,34.3893 651.5,34.5C 653.415,34.2155 655.081,34.5489 656.5,35.5C 656.5,45.8333 656.5,56.1667 656.5,66.5C 655.081,67.4511 653.415,67.7845 651.5,67.5C 650.883,67.6107 650.383,67.944 650,68.5C 649.501,63.5111 649.334,58.5111 649.5,53.5C 647.167,53.5 644.833,53.5 642.5,53.5C 642.5,57.8333 642.5,62.1667 642.5,66.5C 641.432,67.4345 640.099,67.7678 638.5,67.5C 637.5,68.8333 636.5,68.8333 635.5,67.5C 635.5,67.1667 635.5,66.8333 635.5,66.5C 635.5,56.1667 635.5,45.8333 635.5,35.5C 635.5,35.1667 635.5,34.8333 635.5,34.5C 636.5,33.1667 637.5,33.1667 638.5,34.5 Z"/></g>
<g><path style="opacity:0.376" fill="#fe0000" d="M 647.5,33.5 C 648.525,33.8966 648.692,34.5632 648,35.5C 647.536,34.9056 647.369,34.2389 647.5,33.5 Z"/></g>
<g><path style="opacity:0.183" fill="#fe0000" d="M 638.5,34.5 C 641.024,33.1997 643.691,33.1997 646.5,34.5C 645.311,35.4287 643.978,35.762 642.5,35.5C 641.432,34.5655 640.099,34.2322 638.5,34.5 Z"/></g>
<g><path style="opacity:0.915" fill="#070201" d="M 662.5,34.5 C 664.735,34.2053 666.735,34.5386 668.5,35.5C 670.56,41.5097 672.726,47.5097 675,53.5C 675.5,47.1754 675.666,40.8421 675.5,34.5C 677.621,34.3253 679.621,34.6586 681.5,35.5C 681.5,46.1667 681.5,56.8333 681.5,67.5C 679.5,67.5 677.5,67.5 675.5,67.5C 674.883,67.6107 674.383,67.944 674,68.5C 671.469,61.9086 669.136,55.242 667,48.5C 666.501,54.4908 666.334,60.4908 666.5,66.5C 665.432,67.4345 664.099,67.7678 662.5,67.5C 661.5,68.8333 660.5,68.8333 659.5,67.5C 659.5,67.1667 659.5,66.8333 659.5,66.5C 659.5,56.1667 659.5,45.8333 659.5,35.5C 659.5,35.1667 659.5,34.8333 659.5,34.5C 660.5,33.1667 661.5,33.1667 662.5,34.5 Z"/></g>
<g><path style="opacity:0.88" fill="#060101" d="M 740.5,33.5 C 742.25,34.2328 743.917,34.5662 745.5,34.5C 746.209,35.404 747.209,35.7373 748.5,35.5C 751.696,40.2837 753.029,45.617 752.5,51.5C 753.182,57.1082 751.849,62.1082 748.5,66.5C 747.609,67.1098 746.609,67.4431 745.5,67.5C 743.958,68.3007 742.292,68.634 740.5,68.5C 738.626,67.7148 736.626,67.0482 734.5,66.5C 734.167,66.5 733.833,66.5 733.5,66.5C 728.179,56.2252 728.179,45.8919 733.5,35.5C 733.833,35.5 734.167,35.5 734.5,35.5C 736.626,34.9518 738.626,34.2852 740.5,33.5 Z M 740.5,39.5 C 742.113,39.9443 743.28,40.9443 744,42.5C 745.871,48.4895 745.871,54.4895 744,60.5C 741.478,63.3264 739.478,62.9931 738,59.5C 737.333,53.8333 737.333,48.1667 738,42.5C 738.698,41.3094 739.531,40.3094 740.5,39.5 Z"/></g>
<g><path style="opacity:0.864" fill="#090201" d="M 782.5,34.5 C 783.959,34.4326 785.292,34.7659 786.5,35.5C 787.179,38.7068 788.346,41.7068 790,44.5C 791.183,41.4744 792.349,38.4744 793.5,35.5C 795.717,34.6314 798.05,34.298 800.5,34.5C 800.5,36.1667 800.5,37.8333 800.5,39.5C 794.969,47.5945 792.636,56.5945 793.5,66.5C 793.5,66.8333 793.5,67.1667 793.5,67.5C 792.5,68.8333 791.5,68.8333 790.5,67.5C 788.585,67.7845 786.919,67.4511 785.5,66.5C 786.095,55.3474 783.429,45.0141 777.5,35.5C 777.5,35.1667 777.5,34.8333 777.5,34.5C 779.167,34.5 780.833,34.5 782.5,34.5 Z"/></g>
<g><path style="opacity:0.934" fill="#120401" d="M 710.5,34.5 C 713.059,34.1984 715.393,34.5318 717.5,35.5C 717.5,44.1667 717.5,52.8333 717.5,61.5C 721.167,61.5 724.833,61.5 728.5,61.5C 728.5,63.1667 728.5,64.8333 728.5,66.5C 726.393,67.4682 724.059,67.8016 721.5,67.5C 718.197,68.1942 714.53,68.5275 710.5,68.5C 710.5,57.1667 710.5,45.8333 710.5,34.5 Z"/></g>
<g><path style="opacity:1" fill="#676364" d="M 64.5,31.5 C 64.5,32.8333 64.5,34.1667 64.5,35.5C 67.8333,35.5 71.1667,35.5 74.5,35.5C 74.5,49.1667 74.5,62.8333 74.5,76.5C 73.5044,63.3438 73.1711,50.0105 73.5,36.5C 70.1667,36.5 66.8333,36.5 63.5,36.5C 63.2155,34.5853 63.5489,32.9187 64.5,31.5 Z"/></g>
<g><path style="opacity:1" fill="#655453" d="M 84.5,36.5 C 88.97,35.5139 93.6367,35.1805 98.5,35.5C 98.5,44.1667 98.5,52.8333 98.5,61.5C 98.5,71.8333 98.5,82.1667 98.5,92.5C 98.5,92.8333 98.5,93.1667 98.5,93.5C 97.6043,94.5063 96.9377,94.5063 96.5,93.5C 97.4867,74.5762 97.82,55.5762 97.5,36.5C 93.1667,36.5 88.8333,36.5 84.5,36.5 Z"/></g>
<g><path style="opacity:1" fill="#f3f3f3" d="M 55.5,38.5 C 56.5,38.5 57.5,38.5 58.5,38.5C 58.5,51.1667 58.5,63.8333 58.5,76.5C 55.1667,76.5 51.8333,76.5 48.5,76.5C 48.1676,64.1487 48.501,51.8153 49.5,39.5C 51.4086,38.6518 53.4086,38.3184 55.5,38.5 Z"/></g>
<g><path style="opacity:1" fill="#c2c1c1" d="M 55.5,38.5 C 56.5676,37.5655 57.901,37.2322 59.5,37.5C 59.8288,50.6774 59.4955,63.6774 58.5,76.5C 58.5,63.8333 58.5,51.1667 58.5,38.5C 57.5,38.5 56.5,38.5 55.5,38.5 Z"/></g>
<g><path style="opacity:0.753" fill="#fe0000" d="M 800.5,40.5 C 801.833,41.1667 801.833,41.1667 800.5,40.5 Z"/></g>
<g><path style="opacity:0.627" fill="#fe0001" d="M 800.5,42.5 C 801.833,43.1667 801.833,43.1667 800.5,42.5 Z"/></g>
<g><path style="opacity:0.353" fill="#ff0000" d="M 800.5,44.5 C 801.634,46.9664 801.801,49.633 801,52.5C 800.503,49.854 800.336,47.1873 800.5,44.5 Z"/></g>
<g><path style="opacity:1" fill="#292223" d="M 7.5,40.5 C 7.72966,45.1225 9.72966,48.9558 13.5,52C 19.7095,54.3758 26.0429,56.3758 32.5,58C 37.8333,61.3333 37.8333,64.6667 32.5,68C 24.1733,68.4997 15.84,68.6664 7.5,68.5C 8.15925,59.2038 8.15925,49.8705 7.5,40.5 Z"/></g>
<g><path style="opacity:0.919" fill="#d9271a" d="M 7.5,40.5 C 8.15925,49.8705 8.15925,59.2038 7.5,68.5C 7.5,70.8333 7.5,73.1667 7.5,75.5C 7.32842,76.4916 7.66175,77.1583 8.5,77.5C 7.58627,80.728 7.25293,84.0613 7.5,87.5C 5.11412,85.9245 2.44746,84.9245 -0.5,84.5C -0.5,83.5 -0.5,82.5 -0.5,81.5C 2.27436,67.8537 4.94103,54.187 7.5,40.5 Z"/></g>
<g><path style="opacity:0.753" fill="#fe0000" d="M 800.5,53.5 C 801.833,54.1667 801.833,54.1667 800.5,53.5 Z"/></g>
<g><path style="opacity:0.361" fill="#ff0000" d="M 800.5,55.5 C 801.634,57.9664 801.801,60.633 801,63.5C 800.503,60.854 800.336,58.1873 800.5,55.5 Z"/></g>
<g><path style="opacity:0.753" fill="#fe0000" d="M 800.5,64.5 C 801.833,65.1667 801.833,65.1667 800.5,64.5 Z"/></g>
<g><path style="opacity:0.282" fill="#fe0000" d="M 99.5,66.5 C 100.525,66.8966 100.692,67.5632 100,68.5C 99.5357,67.9056 99.369,67.2389 99.5,66.5 Z"/></g>
<g><path style="opacity:0.167" fill="#fe0000" d="M 101.5,66.5 C 104.032,66.4624 106.699,66.7957 109.5,67.5C 108.167,67.8333 106.833,68.1667 105.5,68.5C 103.667,68.4146 102.334,67.7479 101.5,66.5 Z"/></g>
<g><path style="opacity:0.314" fill="#fe0000" d="M 111.5,66.5 C 111.631,67.2389 111.464,67.9056 111,68.5C 110.308,67.5632 110.475,66.8966 111.5,66.5 Z"/></g>
<g><path style="opacity:0.157" fill="#fb0000" d="M 126.5,66.5 C 126.833,67.8333 127.167,67.8333 127.5,66.5C 129.5,66.5 131.5,66.5 133.5,66.5C 133.5,66.8333 133.5,67.1667 133.5,67.5C 130.833,68.8333 128.167,68.8333 125.5,67.5C 125.5,66.8333 125.833,66.5 126.5,66.5 Z"/></g>
<g><path style="opacity:0.178" fill="#fe0000" d="M 140.5,66.5 C 141.833,66.5 143.167,66.5 144.5,66.5C 144.842,67.3382 145.508,67.6716 146.5,67.5C 143.833,68.8333 141.167,68.8333 138.5,67.5C 139.492,67.6716 140.158,67.3382 140.5,66.5 Z"/></g>
<g><path style="opacity:0.157" fill="#fe0000" d="M 151.5,66.5 C 153.5,66.5 155.5,66.5 157.5,66.5C 156.666,67.7479 155.333,68.4146 153.5,68.5C 151.955,68.4892 150.622,68.1558 149.5,67.5C 150.492,67.6716 151.158,67.3382 151.5,66.5 Z"/></g>
<g><path style="opacity:0.194" fill="#fe0000" d="M 166.5,66.5 C 168.056,67.2909 169.39,67.6242 170.5,67.5C 167.691,68.8003 165.024,68.8003 162.5,67.5C 164.099,67.7678 165.432,67.4345 166.5,66.5 Z"/></g>
<g><path style="opacity:0.314" fill="#fe0000" d="M 172.5,66.5 C 172.631,67.2389 172.464,67.9056 172,68.5C 171.308,67.5632 171.475,66.8966 172.5,66.5 Z"/></g>
<g><path style="opacity:0.213" fill="#e50000" d="M 173.5,66.5 C 175.626,67.0482 177.626,67.7148 179.5,68.5C 176.918,68.9746 174.918,68.3079 173.5,66.5 Z"/></g>
<g><path style="opacity:0.202" fill="#fe0000" d="M 191.5,66.5 C 191.833,66.5 192.167,66.5 192.5,66.5C 192.842,67.3382 193.508,67.6716 194.5,67.5C 191.833,68.8333 189.167,68.8333 186.5,67.5C 188.415,67.7845 190.081,67.4511 191.5,66.5 Z"/></g>
<g><path style="opacity:0.183" fill="#fe0000" d="M 200.5,66.5 C 202.545,66.8344 204.211,67.1677 205.5,67.5C 202.691,68.8003 200.024,68.8003 197.5,67.5C 198.791,67.7373 199.791,67.404 200.5,66.5 Z"/></g>
<g><path style="opacity:0.314" fill="#fe0000" d="M 206.5,66.5 C 207.525,66.8966 207.692,67.5632 207,68.5C 206.536,67.9056 206.369,67.2389 206.5,66.5 Z"/></g>
<g><path style="opacity:0.282" fill="#fe0000" d="M 208.5,66.5 C 209.525,66.8966 209.692,67.5632 209,68.5C 208.536,67.9056 208.369,67.2389 208.5,66.5 Z"/></g>
<g><path style="opacity:0.201" fill="#fe0000" d="M 226.5,66.5 C 227.606,67.1494 228.606,67.4827 229.5,67.5C 226.691,68.8003 224.024,68.8003 221.5,67.5C 223.415,67.7845 225.081,67.4511 226.5,66.5 Z"/></g>
<g><path style="opacity:0.314" fill="#fe0000" d="M 230.5,66.5 C 231.525,66.8966 231.692,67.5632 231,68.5C 230.536,67.9056 230.369,67.2389 230.5,66.5 Z"/></g>
<g><path style="opacity:0.163" fill="#fe0000" d="M 232.5,66.5 C 235.032,66.4624 237.699,66.7957 240.5,67.5C 239.167,67.8333 237.833,68.1667 236.5,68.5C 234.667,68.4146 233.334,67.7479 232.5,66.5 Z"/></g>
<g><path style="opacity:0.282" fill="#fe0000" d="M 241.5,66.5 C 242.525,66.8966 242.692,67.5632 242,68.5C 241.536,67.9056 241.369,67.2389 241.5,66.5 Z"/></g>
<g><path style="opacity:0.314" fill="#fe0000" d="M 243.5,66.5 C 244.525,66.8966 244.692,67.5632 244,68.5C 243.536,67.9056 243.369,67.2389 243.5,66.5 Z"/></g>
<g><path style="opacity:0.188" fill="#f20000" d="M 245.5,66.5 C 247.626,67.0482 249.626,67.7148 251.5,68.5C 248.918,68.9746 246.918,68.3079 245.5,66.5 Z"/></g>
<g><path style="opacity:0.169" fill="#f90000" d="M 260.5,66.5 C 261.978,66.238 263.311,66.5713 264.5,67.5C 261.691,68.8003 259.024,68.8003 256.5,67.5C 257.833,67.1667 259.167,66.8333 260.5,66.5 Z"/></g>
<g><path style="opacity:0.195" fill="#fe0000" d="M 274.5,66.5 C 275.606,67.1494 276.606,67.4827 277.5,67.5C 274.691,68.8003 272.024,68.8003 269.5,67.5C 271.415,67.7845 273.081,67.4511 274.5,66.5 Z"/></g>
<g><path style="opacity:0.282" fill="#fe0000" d="M 278.5,66.5 C 279.525,66.8966 279.692,67.5632 279,68.5C 278.536,67.9056 278.369,67.2389 278.5,66.5 Z"/></g>
<g><path style="opacity:0.216" fill="#fe0000" d="M 280.5,66.5 C 283.054,67.388 285.721,67.7214 288.5,67.5C 287.378,68.1558 286.045,68.4892 284.5,68.5C 282.667,68.4146 281.334,67.7479 280.5,66.5 Z"/></g>
<g><path style="opacity:0.182" fill="#fe0000" d="M 310.5,66.5 C 311.376,66.3691 312.043,66.7025 312.5,67.5C 309.691,68.8003 307.024,68.8003 304.5,67.5C 306.735,67.7947 308.735,67.4614 310.5,66.5 Z"/></g>
<g><path style="opacity:0.314" fill="#fe0000" d="M 313.5,66.5 C 314.525,66.8966 314.692,67.5632 314,68.5C 313.536,67.9056 313.369,67.2389 313.5,66.5 Z"/></g>
<g><path style="opacity:0.314" fill="#fe0000" d="M 315.5,66.5 C 316.525,66.8966 316.692,67.5632 316,68.5C 315.536,67.9056 315.369,67.2389 315.5,66.5 Z"/></g>
<g><path style="opacity:0.166" fill="#fe0000" d="M 323.5,66.5 C 323.842,67.3382 324.508,67.6716 325.5,67.5C 322.976,68.8003 320.309,68.8003 317.5,67.5C 319.396,66.5344 321.396,66.2011 323.5,66.5 Z"/></g>
<g><path style="opacity:0.171" fill="#fe0000" d="M 331.5,66.5 C 332.959,66.4326 334.292,66.7659 335.5,67.5C 335.833,67.5 336.167,67.5 336.5,67.5C 333.833,68.8333 331.167,68.8333 328.5,67.5C 329.791,67.7373 330.791,67.404 331.5,66.5 Z"/></g>
<g><path style="opacity:0.161" fill="#fe0000" d="M 341.5,66.5 C 343.95,66.298 346.283,66.6314 348.5,67.5C 348.833,67.5 349.167,67.5 349.5,67.5C 346.833,68.8333 344.167,68.8333 341.5,67.5C 341.5,67.1667 341.5,66.8333 341.5,66.5 Z"/></g>
<g><path style="opacity:0.201" fill="#fe0000" d="M 357.5,66.5 C 358.606,67.1494 359.606,67.4827 360.5,67.5C 357.691,68.8003 355.024,68.8003 352.5,67.5C 354.415,67.7845 356.081,67.4511 357.5,66.5 Z"/></g>
<g><path style="opacity:0.179" fill="#fe0000" d="M 377.5,66.5 C 377.833,67.8333 378.167,67.8333 378.5,66.5C 380.924,66.6351 382.924,66.9684 384.5,67.5C 381.691,68.8003 379.024,68.8003 376.5,67.5C 376.5,66.8333 376.833,66.5 377.5,66.5 Z"/></g>
<g><path style="opacity:0.314" fill="#fe0000" d="M 385.5,66.5 C 386.525,66.8966 386.692,67.5632 386,68.5C 385.536,67.9056 385.369,67.2389 385.5,66.5 Z"/></g>
<g><path style="opacity:0.209" fill="#fe0000" d="M 388.5,66.5 C 390.607,67.4682 392.941,67.8016 395.5,67.5C 392.976,68.8003 390.309,68.8003 387.5,67.5C 387.624,66.8933 387.957,66.56 388.5,66.5 Z"/></g>
<g><path style="opacity:0.314" fill="#fe0000" d="M 398.5,66.5 C 399.525,66.8966 399.692,67.5632 399,68.5C 398.536,67.9056 398.369,67.2389 398.5,66.5 Z"/></g>
<g><path style="opacity:0.178" fill="#fe0000" d="M 405.5,66.5 C 406.209,67.404 407.209,67.7373 408.5,67.5C 405.976,68.8003 403.309,68.8003 400.5,67.5C 401.789,67.1677 403.455,66.8344 405.5,66.5 Z"/></g>
<g><path style="opacity:0.166" fill="#fe0000" d="M 411.5,67.5 C 411.833,67.5 412.167,67.5 412.5,67.5C 421.35,67.7013 421.017,67.7013 411.5,67.5 Z"/></g>
<g><path style="opacity:0.183" fill="#fe0000" d="M 428.5,66.5 C 430.056,67.2909 431.39,67.6242 432.5,67.5C 429.691,68.8003 427.024,68.8003 424.5,67.5C 426.099,67.7678 427.432,67.4345 428.5,66.5 Z"/></g>
<g><path style="opacity:0.282" fill="#fe0000" d="M 433.5,66.5 C 434.525,66.8966 434.692,67.5632 434,68.5C 433.536,67.9056 433.369,67.2389 433.5,66.5 Z"/></g>
<g><path style="opacity:0.179" fill="#fe0000" d="M 439.5,66.5 C 440.833,66.8333 442.167,67.1667 443.5,67.5C 440.976,68.8003 438.309,68.8003 435.5,67.5C 436.61,67.6242 437.944,67.2909 439.5,66.5 Z"/></g>
<g><path style="opacity:0.196" fill="#fe0000" d="M 454.5,66.5 C 454.833,67.8333 455.167,67.8333 455.5,66.5C 456.043,66.56 456.376,66.8933 456.5,67.5C 454.604,68.4656 452.604,68.7989 450.5,68.5C 451.671,67.6554 453.005,66.9887 454.5,66.5 Z"/></g>
<g><path style="opacity:0.282" fill="#fe0000" d="M 457.5,66.5 C 458.525,66.8966 458.692,67.5632 458,68.5C 457.536,67.9056 457.369,67.2389 457.5,66.5 Z"/></g>
<g><path style="opacity:0.17" fill="#fe0000" d="M 466.5,66.5 C 466.5,67.1667 466.833,67.5 467.5,67.5C 464.976,68.8003 462.309,68.8003 459.5,67.5C 461.398,66.8732 463.731,66.5398 466.5,66.5 Z"/></g>
<g><path style="opacity:0.179" fill="#fe0000" d="M 474.5,66.5 C 476.924,66.6351 478.924,66.9684 480.5,67.5C 477.691,68.8003 475.024,68.8003 472.5,67.5C 473.492,67.6716 474.158,67.3382 474.5,66.5 Z"/></g>
<g><path style="opacity:0.207" fill="#fe0000" d="M 501.5,66.5 C 502.606,67.1494 503.606,67.4827 504.5,67.5C 501.691,68.8003 499.024,68.8003 496.5,67.5C 498.415,67.7845 500.081,67.4511 501.5,66.5 Z"/></g>
<g><path style="opacity:0.314" fill="#fe0000" d="M 505.5,66.5 C 506.525,66.8966 506.692,67.5632 506,68.5C 505.536,67.9056 505.369,67.2389 505.5,66.5 Z"/></g>
<g><path style="opacity:0.175" fill="#fe0000" d="M 507.5,66.5 C 510.407,66.2461 513.073,66.5794 515.5,67.5C 514.167,67.8333 512.833,68.1667 511.5,68.5C 509.667,68.4146 508.334,67.7479 507.5,66.5 Z"/></g>
<g><path style="opacity:0.314" fill="#fe0000" d="M 517.5,66.5 C 517.631,67.2389 517.464,67.9056 517,68.5C 516.308,67.5632 516.475,66.8966 517.5,66.5 Z"/></g>
<g><path style="opacity:0.175" fill="#fe0000" d="M 532.5,66.5 C 534.729,66.6144 537.062,66.6144 539.5,66.5C 539.5,66.8333 539.5,67.1667 539.5,67.5C 536.833,68.8333 534.167,68.8333 531.5,67.5C 531.5,66.8333 531.833,66.5 532.5,66.5 Z"/></g>
<g><path style="opacity:0.157" fill="#fe0000" d="M 546.5,66.5 C 547.978,66.238 549.311,66.5713 550.5,67.5C 548.364,68.7928 546.364,68.7928 544.5,67.5C 545.492,67.6716 546.158,67.3382 546.5,66.5 Z"/></g>
<g><path style="opacity:0.269" fill="#fe0000" d="M 551.5,66.5 C 552.525,66.8966 552.692,67.5632 552,68.5C 551.536,67.9056 551.369,67.2389 551.5,66.5 Z"/></g>
<g><path style="opacity:0.247" fill="#fe0000" d="M 553.5,66.5 C 554.525,66.8966 554.692,67.5632 554,68.5C 553.536,67.9056 553.369,67.2389 553.5,66.5 Z"/></g>
<g><path style="opacity:0.134" fill="#fe0000" d="M 555.5,66.5 C 558.407,66.2461 561.073,66.5794 563.5,67.5C 562.167,67.8333 560.833,68.1667 559.5,68.5C 557.667,68.4146 556.334,67.7479 555.5,66.5 Z"/></g>
<g><path style="opacity:0.235" fill="#fe0000" d="M 564.5,66.5 C 565.525,66.8966 565.692,67.5632 565,68.5C 564.536,67.9056 564.369,67.2389 564.5,66.5 Z"/></g>
<g><path style="opacity:0.126" fill="#fe0000" d="M 574.5,66.5 C 574.5,66.8333 574.5,67.1667 574.5,67.5C 571.976,68.8003 569.309,68.8003 566.5,67.5C 568.727,66.8094 571.394,66.476 574.5,66.5 Z"/></g>
<g><path style="opacity:0.174" fill="#fe0000" d="M 581.5,66.5 C 583.924,66.6351 585.924,66.9684 587.5,67.5C 584.691,68.8003 582.024,68.8003 579.5,67.5C 580.492,67.6716 581.158,67.3382 581.5,66.5 Z"/></g>
<g><path style="opacity:0.314" fill="#fe0000" d="M 588.5,66.5 C 589.525,66.8966 589.692,67.5632 589,68.5C 588.536,67.9056 588.369,67.2389 588.5,66.5 Z"/></g>
<g><path style="opacity:0.202" fill="#fe0000" d="M 603.5,67.5 C 605.5,67.5 607.5,67.5 609.5,67.5C 609.217,68.5778 607.217,68.5778 603.5,67.5 Z"/></g>
<g><path style="opacity:0.282" fill="#fe0000" d="M 612.5,66.5 C 613.525,66.8966 613.692,67.5632 613,68.5C 612.536,67.9056 612.369,67.2389 612.5,66.5 Z"/></g>
<g><path style="opacity:0.209" fill="#dd0002" d="M 614.5,66.5 C 617.28,67.0784 619.947,67.7451 622.5,68.5C 619.302,69.0356 616.635,68.369 614.5,66.5 Z"/></g>
<g><path style="opacity:0.163" fill="#fe0000" d="M 629.5,66.5 C 631.703,66.9349 633.703,66.9349 635.5,66.5C 635.5,66.8333 635.5,67.1667 635.5,67.5C 632.833,68.8333 630.167,68.8333 627.5,67.5C 627.842,66.6618 628.508,66.3284 629.5,66.5 Z"/></g>
<g><path style="opacity:0.167" fill="#fe0000" d="M 642.5,66.5 C 643.978,66.238 645.311,66.5713 646.5,67.5C 643.691,68.8003 641.024,68.8003 638.5,67.5C 640.099,67.7678 641.432,67.4345 642.5,66.5 Z"/></g>
<g><path style="opacity:0.314" fill="#fe0000" d="M 647.5,66.5 C 648.525,66.8966 648.692,67.5632 648,68.5C 647.536,67.9056 647.369,67.2389 647.5,66.5 Z"/></g>
<g><path style="opacity:0.207" fill="#fe0000" d="M 656.5,66.5 C 657.5,67.8333 658.5,67.8333 659.5,66.5C 659.5,66.8333 659.5,67.1667 659.5,67.5C 656.833,68.8333 654.167,68.8333 651.5,67.5C 653.415,67.7845 655.081,67.4511 656.5,66.5 Z"/></g>
<g><path style="opacity:0.167" fill="#fe0000" d="M 666.5,66.5 C 667.978,66.238 669.311,66.5713 670.5,67.5C 667.691,68.8003 665.024,68.8003 662.5,67.5C 664.099,67.7678 665.432,67.4345 666.5,66.5 Z"/></g>
<g><path style="opacity:0.314" fill="#fe0000" d="M 671.5,66.5 C 672.525,66.8966 672.692,67.5632 672,68.5C 671.536,67.9056 671.369,67.2389 671.5,66.5 Z"/></g>
<g><path style="opacity:0.216" fill="#fe0000" d="M 675.5,67.5 C 677.5,67.5 679.5,67.5 681.5,67.5C 681.217,68.5778 679.217,68.5778 675.5,67.5 Z"/></g>
<g><path style="opacity:0.314" fill="#fe0000" d="M 684.5,66.5 C 685.525,66.8966 685.692,67.5632 685,68.5C 684.536,67.9056 684.369,67.2389 684.5,66.5 Z"/></g>
<g><path style="opacity:0.188" fill="#ed0000" d="M 688.5,66.5 C 690.698,66.8751 692.698,67.5418 694.5,68.5C 691.753,68.8134 689.086,68.48 686.5,67.5C 687.2,67.2129 687.867,66.8795 688.5,66.5 Z"/></g>
<g><path style="opacity:0.178" fill="#f80000" d="M 703.5,66.5 C 705.056,67.2909 706.39,67.6242 707.5,67.5C 704.691,68.8003 702.024,68.8003 699.5,67.5C 700.833,67.1667 702.167,66.8333 703.5,66.5 Z"/></g>
<g><path style="opacity:0.314" fill="#fe0000" d="M 708.5,66.5 C 709.525,66.8966 709.692,67.5632 709,68.5C 708.536,67.9056 708.369,67.2389 708.5,66.5 Z"/></g>
<g><path style="opacity:0.202" fill="#fe0000" d="M 728.5,66.5 C 729.043,66.56 729.376,66.8933 729.5,67.5C 726.691,68.8003 724.024,68.8003 721.5,67.5C 724.059,67.8016 726.393,67.4682 728.5,66.5 Z"/></g>
<g><path style="opacity:0.282" fill="#fe0000" d="M 730.5,66.5 C 731.525,66.8966 731.692,67.5632 731,68.5C 730.536,67.9056 730.369,67.2389 730.5,66.5 Z"/></g>
<g><path style="opacity:0.314" fill="#fe0000" d="M 733.5,66.5 C 733.631,67.2389 733.464,67.9056 733,68.5C 732.308,67.5632 732.475,66.8966 733.5,66.5 Z"/></g>
<g><path style="opacity:0.201" fill="#e70000" d="M 734.5,66.5 C 736.626,67.0482 738.626,67.7148 740.5,68.5C 737.918,68.9746 735.918,68.3079 734.5,66.5 Z"/></g>
<g><path style="opacity:0.161" fill="#fe0000" d="M 748.5,66.5 C 750.288,66.2148 751.955,66.5481 753.5,67.5C 750.691,68.8003 748.024,68.8003 745.5,67.5C 746.609,67.4431 747.609,67.1098 748.5,66.5 Z"/></g>
<g><path style="opacity:0.282" fill="#fe0000" d="M 754.5,66.5 C 755.525,66.8966 755.692,67.5632 755,68.5C 754.536,67.9056 754.369,67.2389 754.5,66.5 Z"/></g>
<g><path style="opacity:0.314" fill="#fe0000" d="M 756.5,66.5 C 757.525,66.8966 757.692,67.5632 757,68.5C 756.536,67.9056 756.369,67.2389 756.5,66.5 Z"/></g>
<g><path style="opacity:0.188" fill="#e20001" d="M 758.5,66.5 C 760.626,67.0482 762.626,67.7148 764.5,68.5C 761.918,68.9746 759.918,68.3079 758.5,66.5 Z"/></g>
<g><path style="opacity:0.207" fill="#fe0000" d="M 770.5,66.5 C 770.5,67.1667 770.833,67.5 771.5,67.5C 773.415,67.7845 775.081,67.4511 776.5,66.5C 777.043,66.56 777.376,66.8933 777.5,67.5C 774.691,68.8003 772.024,68.8003 769.5,67.5C 769.5,66.8333 769.833,66.5 770.5,66.5 Z"/></g>
<g><path style="opacity:0.314" fill="#fe0000" d="M 778.5,66.5 C 779.525,66.8966 779.692,67.5632 779,68.5C 778.536,67.9056 778.369,67.2389 778.5,66.5 Z"/></g>
<g><path style="opacity:0.314" fill="#fe0000" d="M 780.5,66.5 C 781.525,66.8966 781.692,67.5632 781,68.5C 780.536,67.9056 780.369,67.2389 780.5,66.5 Z"/></g>
<g><path style="opacity:0.177" fill="#fe0000" d="M 785.5,66.5 C 786.919,67.4511 788.585,67.7845 790.5,67.5C 787.976,68.8003 785.309,68.8003 782.5,67.5C 783.325,66.6143 784.325,66.281 785.5,66.5 Z"/></g>
<g><path style="opacity:0.226" fill="#fe0000" d="M 793.5,66.5 C 795.957,66.7923 798.624,66.7923 801.5,66.5C 801.663,68.8568 801.497,71.1902 801,73.5C 800.506,71.8659 800.34,70.1992 800.5,68.5C 797.941,68.8016 795.607,68.4682 793.5,67.5C 793.5,67.1667 793.5,66.8333 793.5,66.5 Z"/></g>
<g><path style="opacity:0.314" fill="#fe0000" d="M 803.5,66.5 C 803.5,67.1667 803.5,67.8333 803.5,68.5C 802.167,67.8333 802.167,67.1667 803.5,66.5 Z"/></g>
<g><path style="opacity:1" fill="#958f8f" d="M 7.5,75.5 C 14.4122,76.4621 21.4122,76.7955 28.5,76.5C 22.021,77.4907 15.3543,77.824 8.5,77.5C 7.66175,77.1583 7.32842,76.4916 7.5,75.5 Z"/></g>
<g><path style="opacity:0.212" fill="#fb0402" d="M 7.5,90.5 C 7.55688,91.609 7.89022,92.609 8.5,93.5C 7.97825,100.136 7.14491,100.136 6,93.5C 4.73613,93.6399 3.56946,93.6399 2.5,93.5C 4.39635,92.7255 6.06302,91.7255 7.5,90.5 Z"/></g>
<g><path style="opacity:0.376" fill="#ff0000" d="M 0.5,92.5 C 1.52502,92.8966 1.69169,93.5632 1,94.5C 0.535656,93.9056 0.368989,93.2389 0.5,92.5 Z"/></g>
<g><path style="opacity:0.945" fill="#ae3329" d="M 23.5,93.5 C 22.5,93.5 21.5,93.5 20.5,93.5C 21.5,92.1667 22.5,92.1667 23.5,93.5 Z"/></g>
<g><path style="opacity:0.957" fill="#a7322b" d="M 32.5,93.5 C 31.0241,93.8885 29.6908,93.8885 28.5,93.5C 29.8333,92.1667 31.1667,92.1667 32.5,93.5 Z"/></g>
<g><path style="opacity:0.222" fill="#fe0000" d="M 98.5,92.5 C 101.001,92.5109 101.168,93.1776 99,94.5C 98.6012,94.2716 98.4346,93.9382 98.5,93.5C 98.5,93.1667 98.5,92.8333 98.5,92.5 Z"/></g>
<g><path style="opacity:0.916" fill="#d8281b" d="M 93.5,93.5 C 92.7814,95.7638 92.448,98.0971 92.5,100.5C 78.2664,98.7944 64.2664,96.4611 50.5,93.5C 64.8271,93.4876 79.1605,93.4876 93.5,93.5 Z"/></g>
<g><path style="opacity:0.282" fill="#fe0000" d="M 6.5,100.5 C 6.89657,99.475 7.56323,99.3083 8.5,100C 7.90558,100.464 7.23891,100.631 6.5,100.5 Z"/></g>
<g><path style="opacity:0.376" fill="#fe0000" d="M 6.5,102.5 C 6.89657,101.475 7.56323,101.308 8.5,102C 7.90558,102.464 7.23891,102.631 6.5,102.5 Z"/></g>
</svg>
